<svg width="100" height="27" viewBox="0 0 100 27" fill="none" xmlns="http://www.w3.org/2000/svg">
<path d="M58.2854 7.45299L64.0418 5.28775L58.2854 3.00855V0L68.1423 4.0114V6.51852L58.2854 10.5527V7.45299Z" fill="white"/>
<path d="M3.79633 26.6667C1.72356 26.6667 0 25.5955 0 23.2479V23.1225C0 20.2393 2.46705 19.3049 5.45229 19.3049H6.88296V18.7465C6.88296 17.6069 6.37603 16.8661 5.18193 16.8661C4.96787 16.8442 4.75164 16.8665 4.54636 16.9317C4.34109 16.9969 4.15104 17.1036 3.98776 17.2454C3.82448 17.3871 3.69136 17.5609 3.59649 17.7563C3.50161 17.9516 3.44696 18.1644 3.43585 18.3818H0.349217C0.574518 15.7949 2.60223 14.5299 5.33964 14.5299C8.07705 14.5299 10.1386 15.7037 10.1386 18.6097V26.416H6.95055V25.0713C6.5988 25.5822 6.12538 25.9952 5.57407 26.2721C5.02275 26.549 4.41133 26.6808 3.79633 26.6553V26.6667ZM6.88296 22.5299V21.3903H5.63253C4.04416 21.3903 3.23307 21.8348 3.23307 22.8832V22.9972C3.23307 23.7949 3.71747 24.3533 4.79892 24.3533C5.05979 24.3833 5.32398 24.3584 5.57488 24.2802C5.82579 24.202 6.05799 24.0721 6.25688 23.8987C6.45578 23.7253 6.61707 23.5122 6.73063 23.2727C6.84419 23.0332 6.90756 22.7726 6.91675 22.5072L6.88296 22.5299ZM17.4383 26.6325C14.239 26.6325 11.9297 24.6268 11.9297 20.6724V20.5128C11.9297 16.5698 14.3968 14.473 17.4609 14.473C20.0856 14.473 22.2485 15.8063 22.5076 18.8604H19.3872C19.1957 17.7208 18.6212 16.9915 17.4946 16.9915C16.1203 16.9915 15.174 18.1311 15.174 20.4103V20.7636C15.174 23.1339 16.0189 24.1824 17.5172 24.1824C18.0638 24.1655 18.5838 23.9399 18.9725 23.5509C19.3613 23.1618 19.59 22.6382 19.6125 22.0855H22.5301C22.5037 22.7312 22.348 23.3649 22.0724 23.9479C21.7967 24.531 21.407 25.0514 20.9267 25.4776C20.4464 25.9038 19.8856 26.2269 19.2782 26.4274C18.6709 26.6279 18.0296 26.7015 17.3933 26.6439L17.4383 26.6325ZM29.3906 26.6439C26.1913 26.6439 23.8819 24.6382 23.8819 20.6838V20.5128C23.8819 16.5698 26.349 14.473 29.4131 14.473C32.0379 14.473 34.2007 15.8063 34.4711 18.8604H31.3845C31.193 17.7208 30.6185 16.9915 29.4919 16.9915C28.1289 16.9915 27.1713 18.1311 27.1713 20.4103V20.7636C27.1713 23.1339 28.0162 24.1824 29.5145 24.1824C30.0611 24.1655 30.5811 23.9399 30.9698 23.5509C31.3586 23.1618 31.5872 22.6382 31.6098 22.0855H34.5387C34.5123 22.7312 34.3565 23.3649 34.0809 23.9479C33.8053 24.531 33.4155 25.0514 32.9353 25.4776C32.455 25.9038 31.8942 26.2269 31.2868 26.4274C30.6794 26.6279 30.0382 26.7015 29.4018 26.6439H29.3906ZM41.4892 26.6439C38.166 26.6439 35.8567 24.6382 35.8567 20.7522V20.5128C35.8567 16.6154 38.2674 14.473 41.3541 14.473C44.2154 14.473 46.6261 16.1026 46.6261 19.9544V21.3675H39.1574C39.2926 23.4644 40.1712 24.2621 41.5568 24.2621C42.0249 24.3112 42.4949 24.1902 42.8829 23.9209C43.2709 23.6516 43.5515 23.2515 43.6747 22.7921H46.6599C46.2994 25.0029 44.5196 26.6781 41.4892 26.6781V26.6439ZM43.5508 19.2479C43.4944 17.5271 42.7171 16.7864 41.4442 16.7864C40.4191 16.7864 39.4953 17.3448 39.1912 19.2479H43.5508ZM48.6313 14.7579H51.8193V16.5015C52.1559 15.8728 52.6613 15.3531 53.2771 15.0023C53.893 14.6514 54.5943 14.4838 55.3002 14.5185C57.3955 14.5185 58.7924 15.7835 58.7924 18.6211V26.4274H55.6156V19.0997C55.6156 17.7436 55.0636 17.1396 53.8921 17.1396C53.6117 17.1229 53.331 17.1683 53.0698 17.2729C52.8086 17.3774 52.5732 17.5384 52.38 17.7447C52.1868 17.951 52.0405 18.1976 51.9515 18.4671C51.8624 18.7366 51.8327 19.0225 51.8644 19.3049V26.416H48.6426L48.6313 14.7579ZM64.853 11.2251V14.7465H67.106V17.1852H64.853V22.7123C64.853 23.5898 65.2473 23.9886 65.9795 23.9886C66.365 24.0006 66.7488 23.9308 67.106 23.7835V26.3248C66.5163 26.4954 65.9056 26.5799 65.2923 26.5755C62.7802 26.5755 61.5861 25.4359 61.5861 23.0542V17.1852H60.2681V14.7465H61.6087V12.5356L64.853 11.2251ZM79.1934 26.416H75.9716V24.7066C75.6598 25.3321 75.1734 25.8512 74.5726 26.1997C73.9719 26.5481 73.2832 26.7105 72.5921 26.6667C70.5193 26.6667 68.9985 25.3903 68.9985 22.6439V14.7465H72.2429V22.1539C72.2429 23.4986 72.7723 24.1254 73.9214 24.1254C74.2013 24.1402 74.481 24.0933 74.7413 23.9881C75.0016 23.8829 75.2362 23.7218 75.429 23.516C75.6218 23.3102 75.7681 23.0644 75.8579 22.7958C75.9477 22.5272 75.9788 22.2421 75.9491 21.9601V14.7465H79.1934V26.416ZM81.5366 14.7465H84.7471V16.8889C85.0038 16.1804 85.4808 15.5752 86.1064 15.1642C86.732 14.7533 87.4725 14.5587 88.2167 14.6097V17.812C86.0313 17.812 84.7471 18.4844 84.7471 20.4331V26.4274H81.5366V14.7465ZM94.8293 26.6667C91.4498 26.6667 89.1968 24.661 89.1968 20.775V20.5128C89.1968 16.6154 91.6075 14.473 94.6829 14.473C97.5555 14.473 99.9662 16.1026 99.9662 19.9544V21.3675H92.4975C92.6327 23.4644 93.5113 24.2621 94.8969 24.2621C95.365 24.3112 95.835 24.1902 96.223 23.9209C96.611 23.6516 96.8916 23.2515 97.0148 22.7921H100C99.6395 25.0029 97.8596 26.6781 94.8293 26.6781V26.6667ZM92.5763 19.2479H96.8796C96.812 17.5271 96.0347 16.7864 94.7617 16.7864C93.7479 16.7864 92.8129 17.3448 92.5087 19.2479" fill="white"/>
</svg>
