<svg width="42" height="42" viewBox="0 0 42 42" fill="none" xmlns="http://www.w3.org/2000/svg">
<circle cx="21" cy="21" r="20" fill="#A100FF" stroke="white" stroke-width="2"/>
<path d="M29.375 20.0625C29.378 21.2174 29.1082 22.3567 28.5875 23.3875C27.9701 24.6228 27.021 25.6618 25.8465 26.3881C24.672 27.1145 23.3185 27.4995 21.9375 27.5C20.7826 27.503 19.6434 27.2332 18.6125 26.7125L13.625 28.375L15.2875 23.3875C14.7668 22.3567 14.497 21.2174 14.5 20.0625C14.5005 18.6816 14.8855 17.328 15.6119 16.1535C16.3382 14.979 17.3772 14.0299 18.6125 13.4125C19.6434 12.8918 20.7826 12.622 21.9375 12.625H22.375C24.1988 12.7256 25.9214 13.4954 27.213 14.787C28.5046 16.0786 29.2744 17.8012 29.375 19.625V20.0625Z" fill="white"/>
</svg>
