<svg width="48" height="48" viewBox="0 0 48 48" fill="none" xmlns="http://www.w3.org/2000/svg">
<path opacity="0.4" d="M24 3.9996C35.03 3.9996 44 12.9716 44 23.9996C44 35.0276 35.03 43.9996 24 43.9996C12.972 43.9996 4 35.0276 4 23.9996C4 12.9716 12.972 3.9996 24 3.9996Z" fill="white"/>
<path d="M21.115 15.5582C21.497 15.5582 21.881 15.7042 22.173 15.9962L29.147 22.9362C29.429 23.2182 29.587 23.6002 29.587 24.0002C29.587 24.3982 29.429 24.7802 29.147 25.0622L22.173 32.0062C21.587 32.5902 20.639 32.5902 20.053 32.0022C19.469 31.4142 19.471 30.4642 20.057 29.8802L25.963 24.0002L20.057 18.1202C19.471 17.5362 19.469 16.5882 20.053 16.0002C20.345 15.7042 20.731 15.5582 21.115 15.5582Z" fill="white"/>
</svg>
