<svg width="175" height="175" viewBox="0 0 175 175" fill="none" xmlns="http://www.w3.org/2000/svg">
<path d="M168.418 88.2092C168.418 132.517 132.509 168.418 88.2092 168.418C43.9097 168.418 8 132.517 8 88.2092C8 43.9177 43.9097 8 88.2092 8C132.509 8 168.418 43.9177 168.418 88.2092Z" fill="#FFCAC7"/>
<path d="M116.874 118.805C115.823 118.805 114.764 118.533 113.794 117.963L82.3034 99.1781C80.4906 98.0873 79.3757 96.1221 79.3757 94.0046V53.523C79.3757 50.2024 82.0708 47.5073 85.3914 47.5073C88.7121 47.5073 91.4071 50.2024 91.4071 53.523V90.5877L119.962 107.616C122.809 109.325 123.747 113.014 122.047 115.87C120.916 117.755 118.919 118.805 116.874 118.805Z" fill="#FF6960"/>
</svg>
