<svg width="28" height="28" viewBox="0 0 28 28" fill="none" xmlns="http://www.w3.org/2000/svg">
<path fill-rule="evenodd" clip-rule="evenodd" d="M13.7998 20.6095H15.2414C15.2414 20.6095 15.6769 20.562 15.8992 20.3239C16.1038 20.1054 16.0973 19.6949 16.0973 19.6949C16.0973 19.6949 16.0691 17.7735 16.9669 17.4906C17.8519 17.2118 18.9883 19.3476 20.1929 20.1688C21.1038 20.7903 21.7959 20.654 21.7959 20.654L25.0167 20.6095C25.0167 20.6095 26.7016 20.5064 25.9027 19.1905C25.8372 19.0829 25.4374 18.2171 23.508 16.4381C21.4885 14.5762 21.7589 14.8774 24.1916 11.6567C25.6732 9.6953 26.2654 8.49783 26.0805 7.98495C25.904 7.49647 24.8143 7.62558 24.8143 7.62558L21.1879 7.64802C21.1879 7.64802 20.9191 7.6116 20.7197 7.72998C20.5249 7.84608 20.3995 8.11667 20.3995 8.11667C20.3995 8.11667 19.8255 9.63448 19.06 10.9253C17.4452 13.649 16.7996 13.7928 16.5357 13.6237C15.9218 13.2295 16.075 12.0402 16.075 11.1952C16.075 8.55572 16.4781 7.45517 15.2902 7.17027C14.896 7.07563 14.6059 7.01319 13.5978 7.00311C12.3039 6.98977 11.2087 7.00701 10.5885 7.30882C10.176 7.50948 9.85775 7.95666 10.0516 7.98235C10.2913 8.01422 10.8341 8.12773 11.1219 8.51702C11.4935 9.01916 11.4804 10.147 11.4804 10.147C11.4804 10.147 11.6939 13.2542 10.9818 13.6403C10.4929 13.905 9.82239 13.3645 8.38276 10.8934C7.64509 9.62765 7.08816 8.22854 7.08816 8.22854C7.08816 8.22854 6.98077 7.96707 6.78923 7.82722C6.55677 7.65778 6.23198 7.60379 6.23198 7.60379L2.78595 7.62623C2.78595 7.62623 2.26863 7.64054 2.07873 7.86397C1.90979 8.06268 2.06531 8.47376 2.06531 8.47376C2.06531 8.47376 4.7632 14.7434 7.81797 17.9029C10.619 20.7997 13.7998 20.6095 13.7998 20.6095Z" fill="white"/>
</svg>
