<svg width="24" height="24" viewBox="0 0 24 24" fill="none" xmlns="http://www.w3.org/2000/svg">
<path d="M15.9091 10.1506L10.6069 7.24951C10.3021 7.08271 9.94171 7.08893 9.64288 7.26599C9.34387 7.44324 9.16553 7.75635 9.16553 8.10388V13.8563C9.16553 14.2022 9.34277 14.5147 9.63977 14.6922C9.79486 14.7848 9.96679 14.8313 10.1391 14.8313C10.2969 14.8313 10.4551 14.7923 10.6007 14.714L15.903 11.8628C16.2178 11.6935 16.4143 11.3663 16.4157 11.0087C16.417 10.6511 16.2229 10.3224 15.9091 10.1506ZM10.572 13.1327V8.83337L14.5347 11.0017L10.572 13.1327Z" fill="white" stroke="white" stroke-width="0.509208"/>
<path d="M22.902 6.90127L22.901 6.89142C22.8823 6.71826 22.6964 5.17801 21.9291 4.3946C21.0422 3.47314 20.0368 3.3612 19.5532 3.30753C19.5132 3.3031 19.4765 3.299 19.4437 3.29473L19.4052 3.29079C16.4907 3.08398 12.0893 3.05575 12.0452 3.05558L12.0413 3.05542L12.0375 3.05558C11.9934 3.05575 7.59192 3.08398 4.65121 3.29079L4.61236 3.29473C4.58108 3.29883 4.5466 3.30261 4.50909 3.30687C4.03108 3.36071 3.03638 3.47282 2.14697 4.42759C1.41617 5.20263 1.20491 6.70988 1.18322 6.87927L1.18069 6.90127C1.17413 6.97332 1.01855 8.68869 1.01855 10.4108V12.0206C1.01855 13.7427 1.17413 15.4581 1.18069 15.5303L1.18187 15.5412C1.20054 15.7115 1.38623 17.2235 2.15 18.0073C2.9839 18.8979 4.03831 19.0157 4.60546 19.0791C4.69511 19.0891 4.77231 19.0976 4.82496 19.1067L4.87592 19.1136C6.5587 19.2698 11.8348 19.3468 12.0585 19.3499L12.0652 19.3501L12.0719 19.3499C12.116 19.3498 16.5173 19.3215 19.4318 19.1147L19.4703 19.1108C19.5071 19.106 19.5485 19.1017 19.5939 19.0971C20.0692 19.0479 21.0586 18.9457 21.9357 18.0038C22.6665 17.2286 22.8779 15.7214 22.8994 15.5522L22.902 15.5302C22.9085 15.4579 23.0643 13.7427 23.0643 12.0206V10.4108C23.0641 8.68869 22.9085 6.97348 22.902 6.90127ZM21.7722 12.0206C21.7722 13.6145 21.6296 15.2561 21.6161 15.4067C21.5613 15.8218 21.3384 16.7755 20.9824 17.1531C20.4334 17.7425 19.8694 17.801 19.4577 17.8435C19.4079 17.8486 19.3618 17.8535 19.3201 17.8586C16.5012 18.0575 12.2659 18.088 12.0708 18.0892C11.8519 18.0861 6.65306 18.0084 5.02158 17.8606C4.93798 17.8473 4.84766 17.8371 4.75247 17.8266C4.26958 17.7726 3.60858 17.6987 3.10029 17.1531L3.08835 17.1407C2.73851 16.785 2.52204 15.8932 2.46704 15.4117C2.45678 15.2978 2.31045 13.6369 2.31045 12.0206V10.4108C2.31045 8.81869 2.45275 7.17898 2.46654 7.02519C2.53197 6.53623 2.75903 5.64038 3.10029 5.2783C3.6661 4.671 4.26268 4.6037 4.65727 4.55922C4.69494 4.55496 4.7301 4.55102 4.76256 4.54691C7.62253 4.347 11.8883 4.31729 12.0413 4.31614C12.1944 4.31713 16.4586 4.347 19.2932 4.54691C19.328 4.55118 19.366 4.55545 19.4069 4.56004C19.8127 4.60518 20.4261 4.67346 20.9891 5.25942L20.9943 5.26484C21.3442 5.62052 21.5606 6.52786 21.6156 7.01911C21.6254 7.12662 21.7722 8.79112 21.7722 10.4108V12.0206Z" fill="white" stroke="white" stroke-width="0.95851"/>
</svg>
